<svg width="32" height="32" viewBox="0 0 32 32" fill="none" xmlns="http://www.w3.org/2000/svg">
<path d="M26.6667 25.3334V14C26.6667 13.793 26.6185 13.5889 26.5259 13.4037C26.4334 13.2186 26.299 13.0575 26.1334 12.9334L16.8 5.93335C16.5692 5.76026 16.2885 5.66669 16 5.66669C15.7115 5.66669 15.4308 5.76026 15.2 5.93335L5.86671 12.9334C5.70111 13.0575 5.56671 13.2186 5.47414 13.4037C5.38157 13.5889 5.33337 13.793 5.33337 14V25.3334C5.33337 25.687 5.47385 26.0261 5.7239 26.2762C5.97395 26.5262 6.31309 26.6667 6.66671 26.6667H12C12.3537 26.6667 12.6928 26.5262 12.9428 26.2762C13.1929 26.0261 13.3334 25.687 13.3334 25.3334V21.3334C13.3334 20.9797 13.4739 20.6406 13.7239 20.3905C13.9739 20.1405 14.3131 20 14.6667 20H17.3334C17.687 20 18.0261 20.1405 18.2762 20.3905C18.5262 20.6406 18.6667 20.9797 18.6667 21.3334V25.3334C18.6667 25.687 18.8072 26.0261 19.0572 26.2762C19.3073 26.5262 19.6464 26.6667 20 26.6667H25.3334C25.687 26.6667 26.0261 26.5262 26.2762 26.2762C26.5262 26.0261 26.6667 25.687 26.6667 25.3334Z" fill="#94A3B8" stroke="#94A3B8" stroke-width="2.66667" stroke-linecap="round" stroke-linejoin="round"/>
</svg>
