<svg width="32" height="32" viewBox="0 0 32 32" fill="none" xmlns="http://www.w3.org/2000/svg">
<path d="M8 28H24C22.6667 28 20 27.2 20 24V21.3333H4V24C4 27.2 6.66667 28 8 28Z" fill="#94A3B8"/>
<path d="M6.66667 17.3333V6.66667C6.66667 5.95942 6.94762 5.28115 7.44772 4.78105C7.94781 4.28095 8.62609 4 9.33333 4H25.3333C26.0406 4 26.7189 4.28095 27.219 4.78105C27.719 5.28115 28 5.95942 28 6.66667V24C28 25.3333 27.2 28 24 28M24 28H8C6.66667 28 4 27.2 4 24V21.3333H20V24C20 27.2 22.6667 28 24 28ZM12 9.33333H22.6667M12 14.6667H17.3333" stroke="#94A3B8" stroke-width="2.66667" stroke-linecap="round" stroke-linejoin="round"/>
</svg>
