<svg width="32" height="32" viewBox="0 0 32 32" fill="none" xmlns="http://www.w3.org/2000/svg">
<path fill-rule="evenodd" clip-rule="evenodd" d="M24 5.33331C23.6464 5.33331 23.3072 5.47379 23.0572 5.72384C22.8071 5.97389 22.6667 6.31302 22.6667 6.66665V25.3333C22.6667 25.6869 22.8071 26.0261 23.0572 26.2761C23.3072 26.5262 23.6464 26.6666 24 26.6666H26.6667C27.0203 26.6666 27.3594 26.5262 27.6095 26.2761C27.8595 26.0261 28 25.6869 28 25.3333V6.66665C28 6.31302 27.8595 5.97389 27.6095 5.72384C27.3594 5.47379 27.0203 5.33331 26.6667 5.33331H24ZM13.3333 14.6666C13.3333 14.313 13.4738 13.9739 13.7239 13.7238C13.9739 13.4738 14.313 13.3333 14.6667 13.3333H17.3333C17.687 13.3333 18.0261 13.4738 18.2761 13.7238C18.5262 13.9739 18.6667 14.313 18.6667 14.6666V25.3333C18.6667 25.6869 18.5262 26.0261 18.2761 26.2761C18.0261 26.5262 17.687 26.6666 17.3333 26.6666H14.6667C14.313 26.6666 13.9739 26.5262 13.7239 26.2761C13.4738 26.0261 13.3333 25.6869 13.3333 25.3333V14.6666ZM4 22.6666C4 22.313 4.14048 21.9739 4.39052 21.7238C4.64057 21.4738 4.97971 21.3333 5.33333 21.3333H8C8.35362 21.3333 8.69276 21.4738 8.94281 21.7238C9.19286 21.9739 9.33333 22.313 9.33333 22.6666V25.3333C9.33333 25.6869 9.19286 26.0261 8.94281 26.2761C8.69276 26.5262 8.35362 26.6666 8 26.6666H5.33333C4.97971 26.6666 4.64057 26.5262 4.39052 26.2761C4.14048 26.0261 4 25.6869 4 25.3333V22.6666Z" fill="#94A3B8"/>
<path d="M24 6.66667V4C23.2927 4 22.6144 4.28095 22.1143 4.78105C21.6142 5.28115 21.3333 5.95942 21.3333 6.66667H24ZM24 25.3333V6.66667H21.3333V25.3333H24ZM24 25.3333H21.3333C21.3333 26.0406 21.6142 26.7189 22.1143 27.219C22.6144 27.719 23.2927 28 24 28V25.3333ZM26.6666 25.3333H24V28H26.6666V25.3333ZM26.6666 25.3333V28C27.3739 28 28.0521 27.719 28.5522 27.219C29.0523 26.7189 29.3333 26.0406 29.3333 25.3333H26.6666ZM26.6666 6.66667V25.3333H29.3333V6.66667H26.6666ZM26.6666 6.66667H29.3333C29.3333 5.95942 29.0523 5.28115 28.5522 4.78105C28.0521 4.28095 27.3739 4 26.6666 4V6.66667ZM24 6.66667H26.6666V4H24V6.66667ZM14.6666 12C13.9594 12 13.2811 12.281 12.781 12.781C12.2809 13.2811 12 13.9594 12 14.6667H14.6666V12ZM17.3333 12H14.6666V14.6667H17.3333V12ZM20 14.6667C20 13.9594 19.719 13.2811 19.2189 12.781C18.7188 12.281 18.0405 12 17.3333 12V14.6667H20ZM20 25.3333V14.6667H17.3333V25.3333H20ZM17.3333 28C18.0405 28 18.7188 27.719 19.2189 27.219C19.719 26.7189 20 26.0406 20 25.3333H17.3333V28ZM14.6666 28H17.3333V25.3333H14.6666V28ZM12 25.3333C12 26.0406 12.2809 26.7189 12.781 27.219C13.2811 27.719 13.9594 28 14.6666 28V25.3333H12ZM12 14.6667V25.3333H14.6666V14.6667H12ZM5.33329 20C4.62605 20 3.94777 20.281 3.44767 20.781C2.94758 21.2811 2.66663 21.9594 2.66663 22.6667H5.33329V20ZM7.99996 20H5.33329V22.6667H7.99996V20ZM10.6666 22.6667C10.6666 21.9594 10.3857 21.2811 9.88558 20.781C9.38548 20.281 8.7072 20 7.99996 20V22.6667H10.6666ZM10.6666 25.3333V22.6667H7.99996V25.3333H10.6666ZM7.99996 28C8.7072 28 9.38548 27.719 9.88558 27.219C10.3857 26.7189 10.6666 26.0406 10.6666 25.3333H7.99996V28ZM5.33329 28H7.99996V25.3333H5.33329V28ZM2.66663 25.3333C2.66663 26.0406 2.94758 26.7189 3.44767 27.219C3.94777 27.719 4.62605 28 5.33329 28V25.3333H2.66663ZM2.66663 22.6667V25.3333H5.33329V22.6667H2.66663Z" fill="#94A3B8"/>
</svg>
