<svg width="32" height="32" viewBox="0 0 32 32" fill="none" xmlns="http://www.w3.org/2000/svg">
<path d="M4 14.6666L7.30667 6.94931C7.51243 6.46931 7.85461 6.0603 8.29074 5.77302C8.72687 5.48574 9.23776 5.33285 9.76 5.33331H22.2427C22.7645 5.33337 23.2748 5.48651 23.7104 5.77375C24.146 6.061 24.4877 6.46973 24.6933 6.94931L28 14.6666M4 14.6666H28M4 14.6666V24M28 14.6666V24M4 24V24.6666C4 25.1971 4.21071 25.7058 4.58579 26.0809C4.96086 26.4559 5.46957 26.6666 6 26.6666C6.53043 26.6666 7.03914 26.4559 7.41421 26.0809C7.78929 25.7058 8 25.1971 8 24.6666V24M4 24H8M28 24V24.6666C28 25.1971 27.7893 25.7058 27.4142 26.0809C27.0391 26.4559 26.5304 26.6666 26 26.6666C25.4696 26.6666 24.9609 26.4559 24.5858 26.0809C24.2107 25.7058 24 25.1971 24 24.6666V24M28 24H24M24 24H8" stroke="#94A3B8" stroke-width="2.66667" stroke-linecap="round" stroke-linejoin="round"/>
<path fill-rule="evenodd" clip-rule="evenodd" d="M4 14.6667H28V24H4V14.6667ZM8 18.6667C8 18.313 8.14048 17.9739 8.39052 17.7238C8.64057 17.4738 8.97971 17.3333 9.33333 17.3333C9.68696 17.3333 10.0274 17.4738 10.2775 17.7238C10.5275 17.9739 10.668 18.313 10.668 18.6667C10.668 19.0203 10.5275 19.3594 10.2775 19.6095C10.0274 19.8595 9.68829 20 9.33467 20C8.98104 20 8.64057 19.8595 8.39052 19.6095C8.14048 19.3594 8 19.0203 8 18.6667ZM22.6667 17.3333C22.313 17.3333 21.9739 17.4738 21.7239 17.7238C21.4738 17.9739 21.3333 18.313 21.3333 18.6667C21.3333 19.0203 21.4738 19.3594 21.7239 19.6095C21.9739 19.8595 22.313 20 22.6667 20C23.0203 20 23.3608 19.8595 23.6108 19.6095C23.8609 19.3594 24.0013 19.0203 24.0013 18.6667C24.0013 18.313 23.8609 17.9739 23.6108 17.7238C23.3608 17.4738 23.0203 17.3333 22.6667 17.3333Z" fill="#94A3B8"/>
</svg>
