<svg width="32" height="32" viewBox="0 0 32 32" fill="none" xmlns="http://www.w3.org/2000/svg">
<path fill-rule="evenodd" clip-rule="evenodd" d="M19.0386 2.86935C18.5453 2.66669 17.9186 2.66669 16.6666 2.66669C15.4146 2.66669 14.7893 2.66669 14.2946 2.86935C13.6379 3.13897 13.1151 3.65837 12.8413 4.31335C12.7159 4.61069 12.6679 4.95869 12.6479 5.46402C12.639 5.83016 12.5369 6.18798 12.3512 6.50365C12.1655 6.81931 11.9023 7.0824 11.5866 7.26802C11.2649 7.44683 10.9033 7.54155 10.5353 7.54341C10.1673 7.54528 9.80474 7.45422 9.48127 7.27869C9.0306 7.04135 8.70393 6.91069 8.38127 6.86802C7.67534 6.77533 6.96136 6.96509 6.3946 7.39602C5.9706 7.71869 5.65727 8.25735 5.03193 9.33335C4.40527 10.4094 4.09327 10.9467 4.0226 11.4734C3.92927 12.1747 4.12127 12.884 4.55593 13.4454C4.75327 13.7014 5.03193 13.916 5.4626 14.1854C6.0986 14.5814 6.5066 15.256 6.5066 16C6.5066 16.744 6.0986 17.4187 5.46393 17.8134C5.03193 18.084 4.75327 18.2987 4.5546 18.5547C4.34004 18.8319 4.18256 19.149 4.09124 19.4874C3.99993 19.8259 3.9766 20.1791 4.0226 20.5267C4.09327 21.052 4.40527 21.5907 5.03193 22.6667C5.6586 23.7427 5.9706 24.28 6.3946 24.604C6.95993 25.0347 7.6746 25.224 8.38127 25.132C8.70393 25.0894 9.0306 24.9587 9.48127 24.7214C9.8049 24.5456 10.1677 24.4544 10.536 24.4563C10.9043 24.4581 11.2661 24.553 11.5879 24.732C12.2359 25.1054 12.6199 25.792 12.6479 26.536C12.6679 27.0427 12.7159 27.3894 12.8413 27.6867C13.1133 28.34 13.6359 28.86 14.2946 29.1307C14.7879 29.3334 15.4146 29.3334 16.6666 29.3334C17.9186 29.3334 18.5453 29.3334 19.0386 29.1307C19.6953 28.8611 20.2181 28.3417 20.4919 27.6867C20.6173 27.3894 20.6653 27.0427 20.6853 26.536C20.7119 25.792 21.0973 25.104 21.7466 24.732C22.0683 24.5532 22.4299 24.4585 22.7979 24.4566C23.1659 24.4548 23.5285 24.5458 23.8519 24.7214C24.3026 24.9587 24.6293 25.0894 24.9519 25.132C25.6586 25.2254 26.3733 25.0347 26.9386 24.604C27.3626 24.2814 27.6759 23.7427 28.3013 22.6667C28.9279 21.5907 29.2399 21.0534 29.3106 20.5267C29.3564 20.1791 29.3329 19.8258 29.2413 19.4873C29.1498 19.1488 28.9921 18.8318 28.7773 18.5547C28.5799 18.2987 28.3013 18.084 27.8706 17.8147C27.2346 17.4187 26.8266 16.744 26.8266 16C26.8266 15.256 27.2346 14.5814 27.8693 14.1867C28.3013 13.916 28.5799 13.7014 28.7786 13.4454C28.9932 13.1681 29.1506 12.8511 29.242 12.5126C29.3333 12.1741 29.3566 11.8209 29.3106 11.4734C29.2399 10.948 28.9279 10.4094 28.3013 9.33335C27.6746 8.25735 27.3626 7.72002 26.9386 7.39602C26.3718 6.96509 25.6579 6.77533 24.9519 6.86802C24.6293 6.91069 24.3026 7.04135 23.8519 7.27869C23.5283 7.45446 23.1655 7.54564 22.7972 7.54378C22.4289 7.54191 22.0671 7.44706 21.7453 7.26802C21.4298 7.08223 21.1669 6.81908 20.9814 6.50342C20.7959 6.18777 20.694 5.83003 20.6853 5.46402C20.6653 4.95735 20.6173 4.61069 20.4919 4.31335C20.3564 3.989 20.1583 3.69453 19.9089 3.44676C19.6596 3.199 19.3638 3.00279 19.0386 2.86935ZM16.6666 20C18.8933 20 20.6973 18.2094 20.6973 16C20.6973 13.7907 18.8919 12 16.6666 12C14.4399 12 12.6359 13.7907 12.6359 16C12.6359 18.2094 14.4413 20 16.6666 20Z" fill="#94A3B8"/>
</svg>
