<svg width="32" height="32" viewBox="0 0 32 32" fill="none" xmlns="http://www.w3.org/2000/svg">
<g id="Frame">
<path id="Vector" fill-rule="evenodd" clip-rule="evenodd" d="M16 29.3334C9.71463 29.3334 6.57196 29.3334 4.61863 27.38C2.66663 25.4294 2.66663 22.2854 2.66663 16C2.66663 9.71469 2.66663 6.57202 4.61863 4.61869C6.57329 2.66669 9.71463 2.66669 16 2.66669C22.2853 2.66669 25.428 2.66669 27.38 4.61869C29.3333 6.57335 29.3333 9.71469 29.3333 16C29.3333 22.2854 29.3333 25.428 27.38 27.38C25.4293 29.3334 22.2853 29.3334 16 29.3334ZM16 23.6667C16.2652 23.6667 16.5195 23.5613 16.7071 23.3738C16.8946 23.1863 17 22.9319 17 22.6667V14.6667C17 14.4015 16.8946 14.1471 16.7071 13.9596C16.5195 13.772 16.2652 13.6667 16 13.6667C15.7347 13.6667 15.4804 13.772 15.2929 13.9596C15.1053 14.1471 15 14.4015 15 14.6667V22.6667C15 23.2187 15.448 23.6667 16 23.6667ZM16 9.33335C16.3536 9.33335 16.6927 9.47383 16.9428 9.72388C17.1928 9.97393 17.3333 10.3131 17.3333 10.6667C17.3333 11.0203 17.1928 11.3594 16.9428 11.6095C16.6927 11.8595 16.3536 12 16 12C15.6463 12 15.3072 11.8595 15.0572 11.6095C14.8071 11.3594 14.6666 11.0203 14.6666 10.6667C14.6666 10.3131 14.8071 9.97393 15.0572 9.72388C15.3072 9.47383 15.6463 9.33335 16 9.33335Z" fill="#3B82F6"/>
</g>
</svg>
