<svg width="32" height="32" viewBox="0 0 32 32" fill="none" xmlns="http://www.w3.org/2000/svg">
<g id="Frame">
<path id="Vector" fill-rule="evenodd" clip-rule="evenodd" d="M4.61863 4.61869C2.66663 6.57335 2.66663 9.71469 2.66663 16C2.66663 22.2854 2.66663 25.428 4.61863 27.38C6.57329 29.3334 9.71463 29.3334 16 29.3334C22.2853 29.3334 25.428 29.3334 27.38 27.38C29.3333 25.4294 29.3333 22.2854 29.3333 16C29.3333 9.71469 29.3333 6.57202 27.38 4.61869C25.4293 2.66669 22.2853 2.66669 16 2.66669C9.71463 2.66669 6.57196 2.66669 4.61863 4.61869ZM10.6666 11C10.9318 11 11.1862 11.1054 11.3737 11.2929C11.5613 11.4805 11.6666 11.7348 11.6666 12V15H15V12C15 11.7348 15.1053 11.4805 15.2929 11.2929C15.4804 11.1054 15.7347 11 16 11C16.2652 11 16.5195 11.1054 16.7071 11.2929C16.8946 11.4805 17 11.7348 17 12V15H17.3333C17.968 15 18.3946 15 18.724 14.9774C19.0453 14.9547 19.2013 14.916 19.304 14.8734C19.7133 14.704 20.0373 14.38 20.2066 13.9707C20.2493 13.868 20.288 13.712 20.3106 13.3907C20.3333 13.0614 20.3333 12.6347 20.3333 12C20.3333 11.7348 20.4387 11.4805 20.6262 11.2929C20.8137 11.1054 21.0681 11 21.3333 11C21.5985 11 21.8529 11.1054 22.0404 11.2929C22.2279 11.4805 22.3333 11.7348 22.3333 12V12.0334C22.3333 12.6267 22.3333 13.1214 22.3066 13.5267C22.2894 13.941 22.2038 14.3496 22.0533 14.736C21.8692 15.181 21.5992 15.5854 21.2588 15.926C20.9184 16.2667 20.5142 16.5369 20.0693 16.7214C19.6826 16.8814 19.2826 16.944 18.86 16.972C18.4546 17 17.96 17 17.3666 17H17V20C17 20.2652 16.8946 20.5196 16.7071 20.7071C16.5195 20.8947 16.2652 21 16 21C15.7347 21 15.4804 20.8947 15.2929 20.7071C15.1053 20.5196 15 20.2652 15 20V17H11.6666V20C11.6666 20.2652 11.5613 20.5196 11.3737 20.7071C11.1862 20.8947 10.9318 21 10.6666 21C10.4014 21 10.1471 20.8947 9.95952 20.7071C9.77198 20.5196 9.66663 20.2652 9.66663 20V12C9.66663 11.8687 9.69249 11.7387 9.74275 11.6173C9.793 11.496 9.86666 11.3858 9.95952 11.2929C10.0524 11.2001 10.1626 11.1264 10.2839 11.0761C10.4053 11.0259 10.5353 11 10.6666 11Z" fill="#F43F5E"/>
</g>
</svg>
