<svg width="28" height="21" viewBox="0 0 28 21" fill="none" xmlns="http://www.w3.org/2000/svg">
<path fill-rule="evenodd" clip-rule="evenodd" d="M12.2226 2.17869L11.5533 1.70535C10.5981 1.02948 9.45674 0.666582 8.28661 0.666687H7.47061C6.93061 0.666687 6.38661 0.70002 5.87861 0.88002C2.70128 2.00802 0.515946 6.12669 0.674612 15.4707C0.706612 17.3534 1.14661 19.4334 2.84528 20.2454C3.42474 20.5239 4.05966 20.668 4.70261 20.6667C5.42528 20.6785 6.13522 20.4758 6.74261 20.084C7.28928 19.7267 7.76928 19.2627 8.24928 18.7987C8.84128 18.2254 9.43328 17.652 10.1479 17.2814C10.9266 16.8776 11.7908 16.6667 12.6679 16.6667H15.3333C16.2106 16.6667 17.0746 16.8774 17.8533 17.28C18.5679 17.652 19.1599 18.2254 19.7533 18.7987C20.2333 19.2627 20.7133 19.7267 21.2573 20.084C21.7773 20.4254 22.4506 20.6667 23.2986 20.6667C23.9416 20.668 24.5765 20.5239 25.1559 20.2454C26.8546 19.4334 27.2946 17.352 27.3266 15.4707C27.4853 6.12669 25.2999 2.00802 22.1226 0.881353C21.6133 0.70002 21.0666 0.666687 20.5293 0.666687H19.7133C18.543 0.666884 17.4016 1.03026 16.4466 1.70669L15.7773 2.17869C15.2576 2.54638 14.6366 2.74384 13.9999 2.74384C13.3633 2.74384 12.7423 2.54638 12.2226 2.17869ZM20.3333 6.00002C20.5985 6.00002 20.8528 6.10538 21.0404 6.29291C21.2279 6.48045 21.3333 6.7348 21.3333 7.00002C21.3333 7.26524 21.2279 7.51959 21.0404 7.70713C20.8528 7.89466 20.5985 8.00002 20.3333 8.00002C20.0681 8.00002 19.8137 7.89466 19.6262 7.70713C19.4386 7.51959 19.3333 7.26524 19.3333 7.00002C19.3333 6.7348 19.4386 6.48045 19.6262 6.29291C19.8137 6.10538 20.0681 6.00002 20.3333 6.00002ZM7.99995 6.33335C8.26516 6.33335 8.51952 6.43871 8.70705 6.62625C8.89459 6.81378 8.99995 7.06814 8.99995 7.33335V8.33335H9.99995C10.2652 8.33335 10.5195 8.43871 10.7071 8.62625C10.8946 8.81378 10.9999 9.06814 10.9999 9.33335C10.9999 9.59857 10.8946 9.85292 10.7071 10.0405C10.5195 10.228 10.2652 10.3334 9.99995 10.3334H8.99995V11.3334C8.99995 11.5986 8.89459 11.8529 8.70705 12.0405C8.51952 12.228 8.26516 12.3334 7.99995 12.3334C7.73473 12.3334 7.48037 12.228 7.29284 12.0405C7.1053 11.8529 6.99995 11.5986 6.99995 11.3334V10.3334H5.99995C5.73473 10.3334 5.48038 10.228 5.29284 10.0405C5.1053 9.85292 4.99995 9.59857 4.99995 9.33335C4.99995 9.06814 5.1053 8.81378 5.29284 8.62625C5.48038 8.43871 5.73473 8.33335 5.99995 8.33335H6.99995V7.33335C6.99995 7.06814 7.1053 6.81378 7.29284 6.62625C7.48037 6.43871 7.73473 6.33335 7.99995 6.33335ZM23.3333 9.00002C23.3333 9.26524 23.2279 9.51959 23.0404 9.70713C22.8529 9.89466 22.5985 10 22.3333 10C22.0681 10 21.8137 9.89466 21.6262 9.70713C21.4386 9.51959 21.3333 9.26524 21.3333 9.00002C21.3333 8.7348 21.4386 8.48045 21.6262 8.29291C21.8137 8.10538 22.0681 8.00002 22.3333 8.00002C22.5985 8.00002 22.8529 8.10538 23.0404 8.29291C23.2279 8.48045 23.3333 8.7348 23.3333 9.00002ZM18.3333 10C18.5985 10 18.8528 9.89466 19.0404 9.70713C19.2279 9.51959 19.3333 9.26524 19.3333 9.00002C19.3333 8.7348 19.2279 8.48045 19.0404 8.29291C18.8528 8.10538 18.5985 8.00002 18.3333 8.00002C18.0681 8.00002 17.8137 8.10538 17.6262 8.29291C17.4386 8.48045 17.3333 8.7348 17.3333 9.00002C17.3333 9.26524 17.4386 9.51959 17.6262 9.70713C17.8137 9.89466 18.0681 10 18.3333 10ZM21.3333 11C21.3333 10.7348 21.2279 10.4805 21.0404 10.2929C20.8528 10.1054 20.5985 10 20.3333 10C20.0681 10 19.8137 10.1054 19.6262 10.2929C19.4386 10.4805 19.3333 10.7348 19.3333 11C19.3333 11.2652 19.4386 11.5196 19.6262 11.7071C19.8137 11.8947 20.0681 12 20.3333 12C20.5985 12 20.8528 11.8947 21.0404 11.7071C21.2279 11.5196 21.3333 11.2652 21.3333 11Z" fill="#A78BFA"/>
</svg>
