<svg width="28" height="24" viewBox="0 0 28 24" fill="none" xmlns="http://www.w3.org/2000/svg">
<path fill-rule="evenodd" clip-rule="evenodd" d="M11.0372 23.9999H16.9625C21.1238 23.9999 23.2052 23.9999 24.6998 23.0199C25.3448 22.5972 25.9002 22.0518 26.3345 21.4146C27.3332 19.9479 27.3332 17.9039 27.3332 13.8186C27.3332 9.73194 27.3332 7.68927 26.3345 6.22261C25.9002 5.58542 25.3448 5.03994 24.6998 4.61727C23.7398 3.98661 22.5372 3.76127 20.6958 3.68127C19.8172 3.68127 19.0612 3.02794 18.8892 2.18127C18.7577 1.5611 18.4162 1.00532 17.9223 0.607875C17.4284 0.210428 16.8124 -0.00431515 16.1785 -6.00292e-05H11.8212C10.5038 -6.00292e-05 9.36917 0.913273 9.1105 2.18127C8.9385 3.02794 8.1825 3.68127 7.30384 3.68127C5.46384 3.76127 4.26117 3.98794 3.29984 4.61727C2.65533 5.04003 2.10034 5.5855 1.6665 6.22261C0.666504 7.68927 0.666504 9.73194 0.666504 13.8186C0.666504 17.9039 0.666504 19.9466 1.66517 21.4146C2.09717 22.0493 2.65184 22.5946 3.29984 23.0199C4.7945 23.9999 6.87584 23.9999 11.0372 23.9999ZM13.9998 8.36394C10.9318 8.36394 8.44384 10.8053 8.44384 13.8173C8.44384 16.8306 10.9318 19.2733 13.9998 19.2733C17.0678 19.2733 19.5558 16.8306 19.5558 13.8186C19.5558 10.8053 17.0678 8.36394 13.9998 8.36394ZM13.9998 10.5453C12.1598 10.5453 10.6665 12.0106 10.6665 13.8186C10.6665 15.6253 12.1598 17.0906 13.9998 17.0906C15.8398 17.0906 17.3332 15.6253 17.3332 13.8186C17.3332 12.0106 15.8398 10.5453 13.9998 10.5453ZM20.2958 9.45461C20.2958 8.85194 20.7932 8.36394 21.4078 8.36394H22.8878C23.5012 8.36394 23.9998 8.85194 23.9998 9.45461C23.997 9.74647 23.8785 10.0253 23.6702 10.2298C23.462 10.4343 23.181 10.5478 22.8892 10.5453H21.4078C21.2632 10.5467 21.1197 10.5196 20.9856 10.4655C20.8514 10.4115 20.7292 10.3315 20.6259 10.2303C20.5227 10.129 20.4404 10.0084 20.3837 9.87527C20.3271 9.74218 20.2972 9.59924 20.2958 9.45461Z" fill="#F6FAFC"/>
</svg>
