<svg width="24" height="27" viewBox="0 0 24 27" fill="none" xmlns="http://www.w3.org/2000/svg">
<path fill-rule="evenodd" clip-rule="evenodd" d="M4.00016 1.99996C3.55814 1.99996 3.13421 2.17555 2.82165 2.48811C2.50909 2.80068 2.3335 3.2246 2.3335 3.66663C2.3335 4.10865 2.50909 4.53258 2.82165 4.84514C3.13421 5.1577 3.55814 5.33329 4.00016 5.33329C4.44219 5.33329 4.86611 5.1577 5.17867 4.84514C5.49124 4.53258 5.66683 4.10865 5.66683 3.66663C5.66683 3.2246 5.49124 2.80068 5.17867 2.48811C4.86611 2.17555 4.44219 1.99996 4.00016 1.99996ZM0.333496 3.66663C0.333214 2.78141 0.653184 1.92598 1.23434 1.25824C1.81549 0.590513 2.61859 0.155567 3.49538 0.0337008C4.37217 -0.0881654 5.26344 0.111276 6.00467 0.595208C6.74589 1.07914 7.28702 1.81489 7.52816 2.66663H18.0002C19.5031 2.66663 20.9444 3.26365 22.0071 4.32635C23.0698 5.38906 23.6668 6.8304 23.6668 8.33329C23.6668 9.83619 23.0698 11.2775 22.0071 12.3402C20.9444 13.4029 19.5031 14 18.0002 14H6.00016C5.0277 14 4.09507 14.3863 3.40744 15.0739C2.7198 15.7615 2.3335 16.6942 2.3335 17.6666C2.3335 18.6391 2.7198 19.5717 3.40744 20.2594C4.09507 20.947 5.0277 21.3333 6.00016 21.3333H20.2535L19.2935 20.3733C19.1952 20.2817 19.1164 20.1713 19.0618 20.0487C19.0071 19.926 18.9777 19.7936 18.9754 19.6593C18.973 19.5251 18.9977 19.3917 19.048 19.2672C19.0983 19.1426 19.1732 19.0295 19.2681 18.9346C19.3631 18.8396 19.4762 18.7648 19.6007 18.7145C19.7252 18.6642 19.8586 18.6395 19.9929 18.6418C20.1271 18.6442 20.2595 18.6736 20.3822 18.7283C20.5049 18.7829 20.6153 18.8617 20.7068 18.96L23.3735 21.6266C23.5608 21.8141 23.666 22.0683 23.666 22.3333C23.666 22.5983 23.5608 22.8525 23.3735 23.04L20.7068 25.7066C20.6153 25.8049 20.5049 25.8837 20.3822 25.9383C20.2595 25.993 20.1271 26.0224 19.9929 26.0247C19.8586 26.0271 19.7252 26.0024 19.6007 25.9521C19.4762 25.9018 19.3631 25.827 19.2681 25.732C19.1732 25.6371 19.0983 25.5239 19.048 25.3994C18.9977 25.2749 18.973 25.1415 18.9754 25.0073C18.9777 24.873 19.0071 24.7406 19.0618 24.6179C19.1164 24.4952 19.1952 24.3848 19.2935 24.2933L20.2535 23.3333H6.00016C4.49727 23.3333 3.05593 22.7363 1.99322 21.6736C0.930518 20.6109 0.333496 19.1695 0.333496 17.6666C0.333496 16.1637 0.930518 14.7224 1.99322 13.6597C3.05593 12.597 4.49727 12 6.00016 12H18.0002C18.9726 12 19.9053 11.6137 20.5929 10.926C21.2805 10.2384 21.6668 9.30575 21.6668 8.33329C21.6668 7.36083 21.2805 6.4282 20.5929 5.74057C19.9053 5.05293 18.9726 4.66663 18.0002 4.66663H7.52816C7.28517 5.51647 6.74348 6.24999 6.00273 6.73224C5.26198 7.21449 4.372 7.41303 3.49652 7.29135C2.62104 7.16966 1.81894 6.73593 1.23779 6.06995C0.656631 5.40396 0.33551 4.55052 0.333496 3.66663Z" fill="#F43F5E"/>
</svg>
