<svg width="28" height="28" viewBox="0 0 28 28" fill="none" xmlns="http://www.w3.org/2000/svg">
<path fill-rule="evenodd" clip-rule="evenodd" d="M13.9998 27.3333C21.3638 27.3333 27.3332 21.364 27.3332 14C27.3332 6.63596 21.3638 0.666626 13.9998 0.666626C6.63584 0.666626 0.666504 6.63596 0.666504 14C0.666504 21.364 6.63584 27.3333 13.9998 27.3333ZM9.44784 9.44796C8.6665 10.2293 8.6665 11.4853 8.6665 14C8.6665 16.5146 8.6665 17.7706 9.44784 18.552C10.2292 19.3333 11.4852 19.3333 13.9998 19.3333C16.5145 19.3333 17.7705 19.3333 18.5518 18.552C19.3332 17.7706 19.3332 16.5146 19.3332 14C19.3332 11.4853 19.3332 10.2293 18.5518 9.44796C17.7705 8.66663 16.5145 8.66663 13.9998 8.66663C11.4852 8.66663 10.2292 8.66663 9.44784 9.44796Z" fill="#F43F5E"/>
</svg>
