<svg width="30" height="30" viewBox="0 0 30 30" fill="none" xmlns="http://www.w3.org/2000/svg">
<path fill-rule="evenodd" clip-rule="evenodd" d="M1.6665 11.8347C1.6665 13.424 2.9465 14.7027 5.50384 17.2614L12.7385 24.496C15.2972 27.0547 16.5758 28.3334 18.1652 28.3334C19.7545 28.3334 21.0332 27.0534 23.5918 24.496L24.4958 23.592C27.0545 21.0347 28.3332 19.7547 28.3332 18.1654C28.3332 16.576 27.0532 15.2974 24.4958 12.7387L17.2612 5.50403C14.7025 2.94536 13.4238 1.6667 11.8345 1.6667C10.2452 1.6667 8.9665 2.9467 6.40784 5.50403L5.50384 6.40803C2.94517 8.9667 1.6665 10.2454 1.6665 11.8347ZM11.6372 7.11603C11.8138 6.92646 11.91 6.67574 11.9054 6.41667C11.9008 6.1576 11.7959 5.91042 11.6127 5.7272C11.4294 5.54398 11.1823 5.43904 10.9232 5.43446C10.6641 5.42989 10.4134 5.52606 10.2238 5.7027L5.70117 10.2227C5.5134 10.4101 5.40777 10.6645 5.40752 10.9298C5.40739 11.0611 5.43315 11.1912 5.4833 11.3126C5.53346 11.434 5.60704 11.5444 5.69984 11.6374C5.79264 11.7303 5.90284 11.8041 6.02416 11.8545C6.14548 11.9049 6.27553 11.9309 6.40689 11.931C6.6722 11.9313 6.92673 11.8261 7.1145 11.6387L11.6372 7.11603ZM21.3305 21.332C21.5199 21.1565 21.672 20.9445 21.7776 20.7088C21.8832 20.4731 21.9401 20.2185 21.945 19.9603C21.9499 19.7021 21.9027 19.4455 21.8061 19.2059C21.7095 18.9664 21.5656 18.7488 21.383 18.5662C21.2004 18.3836 20.9828 18.2397 20.7433 18.1431C20.5037 18.0465 20.2472 17.9993 19.9889 18.0042C19.7307 18.0091 19.4761 18.066 19.2404 18.1716C19.0047 18.2772 18.7927 18.4293 18.6172 18.6187C18.2796 18.9829 18.0963 19.4638 18.1057 19.9603C18.1151 20.4568 18.3166 20.9303 18.6677 21.2815C19.0189 21.6326 19.4924 21.8341 19.9889 21.8435C20.4854 21.8529 20.9663 21.6696 21.3305 21.332ZM20.6798 1.4987C20.7019 1.3692 20.7494 1.24532 20.8194 1.13415C20.8894 1.02297 20.9806 0.926686 21.0878 0.850782C21.1951 0.774879 21.3162 0.720849 21.4443 0.69178C21.5724 0.66271 21.705 0.659171 21.8345 0.681364C26.1012 1.4067 29.3332 5.16136 29.3332 9.66803C29.3328 9.84942 29.2832 10.0273 29.1895 10.1826C29.0958 10.338 28.9617 10.4649 28.8014 10.5498C28.6411 10.6347 28.4608 10.6745 28.2797 10.6648C28.0985 10.6551 27.9234 10.5963 27.7732 10.4947L25.7732 9.1427C25.6603 9.07098 25.563 8.97734 25.4869 8.86734C25.4109 8.75734 25.3577 8.63321 25.3305 8.50228C25.3032 8.37136 25.3025 8.2363 25.3284 8.1051C25.3543 7.97391 25.4063 7.84924 25.4812 7.73847C25.5561 7.62769 25.6525 7.53308 25.7646 7.46021C25.8767 7.38734 26.0023 7.3377 26.134 7.31422C26.2656 7.29075 26.4006 7.29392 26.531 7.32354C26.6614 7.35317 26.7846 7.40865 26.8932 7.4867L27.0265 7.57603C26.2572 5.02936 24.1198 3.0987 21.4985 2.65203C21.2372 2.60736 21.0044 2.46079 20.8511 2.24453C20.6979 2.02827 20.6354 1.76001 20.6798 1.4987ZM9.31984 28.5014C9.29773 28.6309 9.25032 28.7547 9.18031 28.8659C9.11031 28.9771 9.01909 29.0734 8.91186 29.1493C8.80463 29.2252 8.68349 29.2792 8.55537 29.3083C8.42725 29.3374 8.29466 29.3409 8.16517 29.3187C3.8985 28.5947 0.666504 24.84 0.666504 20.3334C0.666593 20.1519 0.716078 19.9738 0.809652 19.8183C0.903227 19.6628 1.03736 19.5357 1.19768 19.4506C1.358 19.3655 1.53845 19.3256 1.71969 19.3353C1.90093 19.3449 2.07613 19.4037 2.2265 19.5054L4.2265 20.8574C4.43784 21.0093 4.58163 21.2376 4.62732 21.4938C4.673 21.7501 4.61699 22.014 4.47118 22.2296C4.32537 22.4452 4.10125 22.5954 3.84643 22.6484C3.59161 22.7014 3.32617 22.653 3.1065 22.5134L2.97317 22.424C3.7425 24.9707 5.87984 26.9014 8.50117 27.348C8.76244 27.3927 8.99529 27.5393 9.14855 27.7555C9.30181 27.9718 9.36427 28.2401 9.31984 28.5014Z" fill="white"/>
</svg>
